<svg id="Layer_1" data-name="Layer 1" xmlns="http://www.w3.org/2000/svg" viewBox="0 0 35.92 32.28"><defs><style>.cls-1{fill:#00337c;}</style></defs><path class="cls-1" d="M14.09,9.56H15c.43,0,.78-.19.78-.42V6.79a.53.53,0,0,1,.51-.51h7.51a.53.53,0,0,1,.52.51V9.17c0,.21.36.39.78.39h.86c.41,0,.78-.18.78-.39V6.79a2.94,2.94,0,0,0-2.94-2.93H16.24a2.94,2.94,0,0,0-2.93,2.93V9.1C13.31,9.35,13.67,9.56,14.09,9.56Z" transform="translate(-2.04 -3.86)"/><rect class="cls-1" x="16" y="19.9" width="3.93" height="2.45" rx="0.78"/><rect class="cls-1" x="16" y="23.69" width="3.93" height="2.73" rx="0.78"/><path class="cls-1" d="M36,24.81l-.57.21A46.41,46.41,0,0,1,23.19,27.4v1.51a2.4,2.4,0,0,1-2.4,2.4H19.21a2.4,2.4,0,0,1-2.4-2.4V27.4A45.82,45.82,0,0,1,3.74,24.7a8,8,0,0,1-.84-.32l-.07,0a.2.2,0,0,0-.08,0v9.85a2,2,0,0,0,2,2H35.28a2,2,0,0,0,2-2V24.31l-.44.17Z" transform="translate(-2.04 -3.86)"/><path class="cls-1" d="M36.06,11H3.94A1.91,1.91,0,0,0,2,13v8.52a.8.8,0,0,0,.38.59s.35.16.92.38a44.72,44.72,0,0,0,13.47,2.94V24c0-.95,1.43-1.6,2.4-1.6h1.58c1.12,0,2.4.74,2.37,1.85v1.18a45.08,45.08,0,0,0,11.78-2.3c1.16-.4,2.63-1,2.64-1a.78.78,0,0,0,.38-.58V13A1.91,1.91,0,0,0,36.06,11Z" transform="translate(-2.04 -3.86)"/></svg>