<?xml version="1.0" encoding="utf-8"?>
<!-- Generator: Adobe Illustrator 24.2.0, SVG Export Plug-In . SVG Version: 6.00 Build 0)  -->
<svg version="1.1" id="Layer_1" xmlns="http://www.w3.org/2000/svg" xmlns:xlink="http://www.w3.org/1999/xlink" x="0px" y="0px"
	 viewBox="0 0 40 40" style="enable-background:new 0 0 40 40;" xml:space="preserve">
<style type="text/css">
	.st0{fill:#00337C;}
</style>
<g>
	<path class="st0" d="M14.09,9.56h0.86c0.42,0,0.78-0.19,0.78-0.42V6.79c0-0.28,0.24-0.51,0.51-0.51h7.51
		c0.28,0,0.51,0.23,0.51,0.51v2.37c0,0.21,0.36,0.39,0.78,0.39h0.86c0.41,0,0.78-0.18,0.78-0.39V6.79c0-1.62-1.32-2.93-2.93-2.93
		h-7.51c-1.62,0-2.93,1.32-2.93,2.93V9.1C13.31,9.35,13.67,9.56,14.09,9.56z"/>
	<path class="st0" d="M18.81,26.2h2.37c0.43,0,0.78-0.35,0.78-0.78v-0.89c0-0.43-0.35-0.78-0.78-0.78h-2.37
		c-0.43,0-0.78,0.35-0.78,0.78v0.89C18.03,25.85,18.38,26.2,18.81,26.2z"/>
	<path class="st0" d="M18.03,29.5c0,0.43,0.35,0.78,0.78,0.78h2.37c0.43,0,0.78-0.35,0.78-0.78v-1.17c0-0.43-0.35-0.78-0.78-0.78
		h-2.37c-0.43,0-0.78,0.35-0.78,0.78V29.5z"/>
	<path class="st0" d="M35.95,24.81c-0.21,0.08-0.4,0.14-0.57,0.2c-3.81,1.31-7.91,2.11-12.19,2.38v1.51c0,1.32-1.08,2.4-2.4,2.4
		h-1.59c-1.32,0-2.4-1.08-2.4-2.4V27.4c-4.62-0.29-9.02-1.19-13.07-2.69c-0.12-0.03-0.33-0.12-0.84-0.32l-0.07-0.03
		c-0.03-0.01-0.06-0.02-0.09-0.03v9.85c0,1.08,0.88,1.97,1.97,1.97h30.57c1.08,0,1.97-0.88,1.97-1.97v-9.86
		c-0.14,0.06-0.28,0.11-0.44,0.18L35.95,24.81z"/>
	<path class="st0" d="M36.06,11.04H3.94c-1.05,0-1.91,0.86-1.91,1.91v8.52c0,0.2,0.2,0.51,0.38,0.59c0.01,0,0.35,0.15,0.91,0.38
		c4.07,1.62,8.72,2.63,13.48,2.94v-1.43c0-0.95,1.43-1.6,2.4-1.6h1.59c1.12,0,2.39,0.73,2.37,1.85v1.18
		c4.13-0.27,8.11-1.04,11.78-2.3c1.16-0.4,2.62-1.02,2.64-1.03c0.18-0.08,0.38-0.38,0.38-0.58v-8.52
		C37.96,11.9,37.11,11.04,36.06,11.04z"/>
</g>
</svg>
